<svg id="Layer_1" data-name="Layer 1" xmlns="http://www.w3.org/2000/svg" viewBox="0 0 321 236"><defs><style>.cls-1{fill:#ed6d05;}.cls-2{fill:#f49800;}.cls-3{fill:#fcbf00;}</style></defs><title>RGB-NEW-LOGO</title><rect class="cls-1" x="138.22" y="95.25" width="24.76" height="52.71" transform="translate(-41.88 142.11) rotate(-45)"/><rect class="cls-2" x="159.22" y="74.25" width="24.76" height="52.71" transform="translate(-20.88 150.81) rotate(-45)"/><rect class="cls-3" x="180.23" y="53.24" width="24.76" height="52.71" transform="translate(0.13 159.51) rotate(-45)"/><rect class="cls-1" x="106.69" y="76.9" width="24.76" height="26.36" transform="translate(-28.82 110.58) rotate(-45)"/><rect class="cls-2" x="127.7" y="55.9" width="24.76" height="26.36" transform="translate(-7.82 119.28) rotate(-45)"/><rect class="cls-3" x="148.7" y="34.9" width="24.76" height="26.36" transform="translate(13.19 127.99) rotate(-45.01)"/><path d="M27.39,177.07a2.45,2.45,0,0,1,.71-1.92,3.48,3.48,0,0,1,2.32-.63,3.46,3.46,0,0,1,2.32.65,2.39,2.39,0,0,1,.73,1.9c0,1.68-1,2.52-3,2.52S27.39,178.75,27.39,177.07Zm5.86,20.73H27.53V181.2h5.72Z"/><path d="M51,181a5.1,5.1,0,0,1-1.22,3.42,6.93,6.93,0,0,1-3.51,2.07v.09q5.36.67,5.35,5.07a5.48,5.48,0,0,1-2.36,4.7,11,11,0,0,1-6.56,1.71,18.8,18.8,0,0,1-3.2-.25,16.12,16.12,0,0,1-3.18-.9v-4.81a12.71,12.71,0,0,0,2.86,1.06,11.75,11.75,0,0,0,2.68.35,5.46,5.46,0,0,0,2.78-.54,1.81,1.81,0,0,0,.87-1.67A1.87,1.87,0,0,0,45,190a2.89,2.89,0,0,0-1.46-.72,11.72,11.72,0,0,0-2.63-.24H39.62v-4.35H41q4.39,0,4.4-2.25a1.39,1.39,0,0,0-.65-1.26,3.19,3.19,0,0,0-1.75-.41,8,8,0,0,0-4.24,1.37l-2.4-3.86a11.4,11.4,0,0,1,3.47-1.67,14.9,14.9,0,0,1,4.08-.5,9,9,0,0,1,5.21,1.32A4.18,4.18,0,0,1,51,181Z"/><path d="M53.46,192v-4.57h8.27V192Z"/><path d="M74.11,197.8H68.33V181.12H63.1v-4.74H79.32v4.74H74.11Z"/><path d="M95.08,197.8H82.38V176.38h12.7V181H88.16v3.37h6.4V189h-6.4v4h6.92Z"/><path d="M108.35,180.82a3.68,3.68,0,0,0-3.22,1.7,8.15,8.15,0,0,0-1.16,4.66q0,6.18,4.7,6.18a9.72,9.72,0,0,0,2.75-.39,27,27,0,0,0,2.68-1v4.9a14.86,14.86,0,0,1-6.06,1.18c-3.23,0-5.7-.93-7.42-2.81S98,190.7,98,187.15a13,13,0,0,1,1.25-5.84,9.08,9.08,0,0,1,3.6-3.88,10.92,10.92,0,0,1,5.53-1.35,15.17,15.17,0,0,1,6.63,1.51l-1.78,4.55a21.21,21.21,0,0,0-2.37-.94A8.34,8.34,0,0,0,108.35,180.82Z"/><path d="M136.6,197.8h-5.81v-8.73h-6.71v8.73h-5.81V176.38h5.81v7.94h6.71v-7.94h5.81Z"/><path d="M161.6,197.8H154l-7.82-15.09h-.13c.19,2.38.28,4.19.28,5.44v9.65h-5.12V176.38h7.55l7.78,14.89h.09c-.14-2.16-.2-3.89-.2-5.2v-9.69h5.15Z"/><path d="M186.24,187.06c0,3.61-.89,6.35-2.65,8.22s-4.35,2.81-7.76,2.81-5.93-.94-7.72-2.82-2.68-4.63-2.68-8.24.89-6.28,2.67-8.16,4.37-2.82,7.76-2.82,6,.93,7.74,2.8S186.24,183.45,186.24,187.06Zm-14.72,0q0,6.21,4.31,6.21a3.72,3.72,0,0,0,3.26-1.5,11,11,0,0,0,0-9.45,3.65,3.65,0,0,0-3.21-1.53C173,180.79,171.52,182.88,171.52,187.06Z"/><path d="M190.1,197.8V176.38h5.78v16.75h8.24v4.67Z"/><path d="M227.56,187.06q0,5.41-2.65,8.22c-1.77,1.88-4.35,2.81-7.75,2.81s-5.93-.94-7.72-2.82-2.69-4.63-2.69-8.24.89-6.28,2.67-8.16,4.37-2.82,7.76-2.82,6,.93,7.74,2.8S227.56,183.45,227.56,187.06Zm-14.72,0q0,6.21,4.32,6.21a3.71,3.71,0,0,0,3.25-1.5,8.29,8.29,0,0,0,1.06-4.71,8.41,8.41,0,0,0-1.07-4.74,3.68,3.68,0,0,0-3.22-1.53Q212.84,180.79,212.84,187.06Z"/><path d="M240,185.26h9.23V196.8a25.28,25.28,0,0,1-8.26,1.29c-3.3,0-5.85-1-7.65-2.87s-2.7-4.64-2.7-8.19,1-6.14,3-8.07,4.73-2.88,8.28-2.88a17.9,17.9,0,0,1,3.81.38,15.57,15.57,0,0,1,3.12,1L247,182a11.25,11.25,0,0,0-5.08-1.15,4.84,4.84,0,0,0-3.92,1.65,7.15,7.15,0,0,0-1.38,4.71,7.26,7.26,0,0,0,1.25,4.58,4.35,4.35,0,0,0,3.61,1.57,10.32,10.32,0,0,0,2.37-.25v-3.35H240Z"/><path d="M253.6,197.8V176.38h5.81V197.8Z"/><path d="M276.74,197.8H264V176.38h12.7V181h-6.92v3.37h6.41V189h-6.41v4h6.92Z"/><path d="M294.47,191.3a6.26,6.26,0,0,1-1,3.53,6.52,6.52,0,0,1-2.91,2.41,10.82,10.82,0,0,1-4.46.85,18.1,18.1,0,0,1-3.59-.3,13.66,13.66,0,0,1-3-1v-5.16a17.12,17.12,0,0,0,3.44,1.33,13.09,13.09,0,0,0,3.28.47,3.24,3.24,0,0,0,1.88-.44,1.39,1.39,0,0,0,.6-1.16,1.25,1.25,0,0,0-.24-.76,2.78,2.78,0,0,0-.77-.67c-.36-.23-1.31-.68-2.85-1.38a13.66,13.66,0,0,1-3.14-1.84,5.72,5.72,0,0,1-1.55-2,6.8,6.8,0,0,1-.51-2.74,5.49,5.49,0,0,1,2.16-4.62,9.48,9.48,0,0,1,5.91-1.65,16.49,16.49,0,0,1,6.77,1.54l-1.77,4.46a12.9,12.9,0,0,0-5.18-1.37,2.73,2.73,0,0,0-1.64.39,1.21,1.21,0,0,0-.51,1,1.43,1.43,0,0,0,.65,1.13,25.1,25.1,0,0,0,3.54,1.82,9.84,9.84,0,0,1,3.84,2.67A5.85,5.85,0,0,1,294.47,191.3Z"/></svg>